<?xml version="1.0" encoding="UTF-8" standalone="no"?>
<svg
   viewBox="0 -0.5 1000 979.167"
   shape-rendering="crispEdges"
   version="1.1"
   id="svg13"
   sodipodi:docname="Search1.svg"
   width="1000"
   height="979.16699"
   inkscape:version="1.3 (0e150ed6c4, 2023-07-21)"
   xmlns:inkscape="http://www.inkscape.org/namespaces/inkscape"
   xmlns:sodipodi="http://sodipodi.sourceforge.net/DTD/sodipodi-0.dtd"
   xmlns="http://www.w3.org/2000/svg"
   xmlns:svg="http://www.w3.org/2000/svg">
  <defs
     id="defs13" />
  <sodipodi:namedview
     id="namedview13"
     pagecolor="#ffffff"
     bordercolor="#000000"
     borderopacity="0.25"
     inkscape:showpageshadow="2"
     inkscape:pageopacity="0.0"
     inkscape:pagecheckerboard="0"
     inkscape:deskcolor="#d1d1d1"
     inkscape:zoom="0.47005208"
     inkscape:cx="655.24654"
     inkscape:cy="498.88089"
     inkscape:window-width="1920"
     inkscape:window-height="1017"
     inkscape:window-x="-8"
     inkscape:window-y="-8"
     inkscape:window-maximized="1"
     inkscape:current-layer="svg13" />
  <metadata
     id="metadata1">Made with Pixels to Svg https://codepen.io/shshaw/pen/XbxvNj</metadata>
  <path
     stroke="#999900"
     d="M 125,9.9166498 H 395.83333 M 104.16667,30.749983 H 125 m 270.83333,0 h 20.83334 M 83.333333,51.583316 h 20.833337 m 312.5,0 H 437.5 M 62.5,72.41665 h 20.833333 m 354.166667,0 h 20.83333 M 41.666667,93.249983 H 62.5 m 395.83333,0 h 20.83334 M 20.833333,114.08331 h 20.833334 m 437.500003,0 H 500 M 0,134.91665 h 20.833333 m 479.166667,0 h 20.83333 M 0,155.74998 h 20.833333 m 499.999997,0 H 937.5 M 0,176.58331 H 20.833333 M 0,197.41665 h 20.833333 m 937.499997,0 h 20.83334 M 0,218.24998 h 20.833333 m 937.499997,0 h 20.83334 M 0,239.08331 h 20.833333 m 937.499997,0 h 20.83334 M 0,259.91665 h 20.833333 m 937.499997,0 h 20.83334 M 0,280.74998 h 20.833333 m 937.499997,0 h 20.83334 M 0,301.58331 h 20.833333 m 937.499997,0 h 20.83334 M 0,322.41665 h 20.833333 m 937.499997,0 h 20.83334 M 0,343.24998 h 20.833333 m 937.499997,0 h 20.83334 M 0,364.08331 h 20.833333 m 937.499997,0 h 20.83334 M 0,384.91665 h 20.833333 m 937.499997,0 h 20.83334 M 0,405.74998 h 20.833333 m 937.499997,0 h 20.83334 M 0,426.58331 h 20.833333 m 937.499997,0 h 20.83334 M 0,447.41665 h 20.833333 m 937.499997,0 h 20.83334 M 0,468.24998 h 20.833333 m 937.499997,0 h 20.83334 M 0,489.08331 h 20.833333 m 937.499997,0 h 20.83334 M 0,509.91665 h 20.833333 m 937.499997,0 h 20.83334 M 0,530.74998 h 20.833333 m 937.499997,0 h 20.83334 M 0,551.58331 h 20.833333 m 937.499997,0 h 20.83334 M 0,572.41665 h 20.833333 m 937.499997,0 h 20.83334 M 0,593.24998 h 20.833333 m 937.499997,0 h 20.83334 M 0,614.08331 h 20.833333 m 937.499997,0 h 20.83334 M 0,634.91665 h 20.833333 m 937.499997,0 h 20.83334 M 0,655.74998 h 20.833333 m 937.499997,0 h 20.83334 M 0,676.58331 h 20.833333 m 937.499997,0 h 20.83334 M 0,697.41665 h 20.833333 m 937.499997,0 h 20.83334 M 0,718.24998 h 20.833333 m 937.499997,0 h 20.83334 M 0,739.08331 h 20.833333 m 937.499997,0 h 20.83334 M 0,759.91665 h 20.833333 m 937.499997,0 h 20.83334 M 0,780.74998 h 20.833333 m 937.499997,0 h 20.83334 M 0,801.58331 h 20.833333 m 20.833334,0 H 500 m 270.83333,0 h 208.33334"
     id="path1"
     style="stroke-width:20.8333" />
  <path
     stroke="#040404"
     d="m 395.83333,9.9166498 h 20.83334 m 0,20.8333332 H 437.5 m 0,20.833333 h 20.83333 m 0,20.833334 h 20.83334 m 0,20.833333 H 500 m 0,20.833327 h 20.83333 m 0,20.83334 h 20.83334 M 937.5,155.74998 h 20.83333 m 0,20.83333 h 20.83334 m 0,20.83334 H 1000 m -583.33333,20.83333 h 41.66666 m 520.83334,0 H 1000 M 458.33333,239.08331 H 500 m 479.16667,0 H 1000 m -500,20.83334 h 20.83333 m 458.33334,0 H 1000 m -479.16667,20.83333 h 20.83334 m 437.5,0 H 1000 m -479.16667,20.83333 h 20.83334 m 437.5,0 H 1000 M 541.66667,322.41665 H 562.5 m 416.66667,0 H 1000 M 541.66667,343.24998 H 562.5 m 416.66667,0 H 1000 m -437.5,20.83333 h 20.83333 m 395.83334,0 H 1000 m -437.5,20.83334 h 20.83333 m 395.83334,0 H 1000 m -437.5,20.83333 h 20.83333 m 395.83334,0 H 1000 m -437.5,20.83333 h 20.83333 m 395.83334,0 H 1000 m -437.5,20.83334 h 20.83333 m 395.83334,0 H 1000 m -437.5,20.83333 h 20.83333 m 395.83334,0 H 1000 m -437.5,20.83333 h 20.83333 m 395.83334,0 H 1000 M 541.66667,509.91665 H 562.5 m 416.66667,0 H 1000 M 541.66667,530.74998 H 562.5 m 416.66667,0 H 1000 m -479.16667,20.83333 h 20.83334 m 437.5,0 H 1000 m -479.16667,20.83334 h 20.83334 m 437.5,0 H 1000 m -500,20.83333 h 20.83333 m 20.83334,0 H 562.5 m 416.66667,0 H 1000 M 458.33333,614.08331 H 500 m 62.5,0 h 20.83333 m 395.83334,0 H 1000 m -770.83333,20.83334 h 41.66666 m 145.83334,0 h 41.66666 m 125,0 h 20.83334 m 375,0 H 1000 m -729.16667,20.83333 h 145.83334 m 187.5,0 H 625 m 354.16667,0 H 1000 m -375,20.83333 h 20.83333 m 333.33334,0 H 1000 m -354.16667,20.83334 h 20.83334 m 312.5,0 H 1000 M 666.66667,718.24998 H 687.5 m 291.66667,0 H 1000 m -312.5,20.83333 h 20.83333 m 270.83334,0 H 1000 m -291.66667,20.83334 h 20.83334 m 250,0 H 1000 M 729.16667,780.74998 H 750 m 229.16667,0 H 1000 m -250,20.83333 h 20.83333 m 208.33334,0 H 1000 M 0,822.41665 h 604.16667 m 166.66666,0 h 208.33334 m -187.5,20.83333 H 812.5 m 0,20.83333 h 20.83333 m 0,20.83334 h 20.83334 m -20.83334,20.83333 h 20.83334 m -20.83334,20.83333 h 20.83334 m -20.83334,20.83334 h 20.83334 M 750,968.24998 h 83.33333"
     id="path2"
     style="stroke-width:20.8333" />
  <path
     stroke="#ffffff"
     d="M 125,30.749983 H 395.83333 M 104.16667,51.583316 H 125 M 83.333333,72.41665 H 104.16667 M 62.5,93.249983 H 83.333333 M 41.666667,114.08331 H 62.5 M 20.833333,134.91665 H 41.666667 M 20.833333,176.58331 H 958.33333 M 20.833333,197.41665 h 20.833334 m -20.833334,20.83333 h 20.833334 m -20.833334,20.83333 h 20.833334 m 208.333333,0 h 20.83333 m 20.83334,0 H 312.5 m 20.83333,0 h 20.83334 m 20.83333,0 h 20.83333 M 20.833333,259.91665 h 20.833334 m 229.166663,0 h 20.83334 m 20.83333,0 h 20.83333 M 20.833333,280.74998 h 20.833334 m 166.666663,0 h 20.83334 m 20.83333,0 h 20.83333 m 20.83334,0 H 312.5 M 20.833333,301.58331 h 20.833334 m 145.833333,0 h 20.83333 m 20.83334,0 h 62.5 M 20.833333,322.41665 h 20.833334 m 125.000003,0 H 187.5 m 20.83333,0 h 62.5 M 20.833333,343.24998 h 20.833334 m 104.166663,0 h 20.83334 m 20.83333,0 H 250 M 20.833333,364.08331 h 20.833334 m 125.000003,0 H 250 M 20.833333,384.91665 h 20.833334 m 104.166663,0 h 20.83334 m 20.83333,0 h 41.66667 M 20.833333,405.74998 h 20.833334 m 125.000003,0 h 62.5 M 20.833333,426.58331 h 20.833334 m 104.166663,0 h 20.83334 m 20.83333,0 h 20.83333 M 20.833333,447.41665 h 20.833334 m 125.000003,0 H 187.5 m 20.83333,0 h 20.83334 M 20.833333,468.24998 h 20.833334 m 104.166663,0 h 20.83334 m 20.83333,0 h 20.83333 M 20.833333,489.08331 h 20.833334 m 125.000003,0 H 187.5 m 20.83333,0 h 20.83334 M 20.833333,509.91665 h 20.833334 m 145.833333,0 h 20.83333 M 20.833333,530.74998 h 20.833334 m 166.666663,0 h 20.83334 M 20.833333,551.58331 h 20.833334 m -20.833334,20.83334 h 20.833334 m -20.833334,20.83333 h 20.833334 m -20.833334,20.83333 h 20.833334 m -20.833334,20.83334 h 20.833334 m 437.500003,0 H 500 M 20.833333,655.74998 h 20.833334 m 437.500003,0 h 41.66666 M 20.833333,676.58331 h 20.833334 m 458.333333,0 h 41.66667 M 20.833333,697.41665 h 20.833334 m 479.166663,0 H 562.5 M 20.833333,718.24998 h 20.833334 m -20.833334,20.83333 h 20.833334 m -20.833334,20.83334 h 20.833334 m -20.833334,20.83333 h 20.833334"
     id="path3"
     style="stroke-width:20.8333" />
  <path
     stroke="#ffff99"
     d="m 125,51.583316 h 291.66667 m -312.5,20.833334 H 437.5 M 83.333333,93.249983 H 458.33333 M 62.5,114.08331 H 479.16667 M 41.666667,134.91665 H 500 m -458.333333,62.5 H 270.83333 m 208.33334,0 h 312.5 m 20.83333,0 h 41.66667 m 20.83333,0 h 20.83333 m 20.83334,0 H 937.5 M 41.666667,218.24998 H 229.16667 m 270.83333,0 h 125 m 20.83333,0 H 687.5 m 20.83333,0 h 20.83334 m 20.83333,0 h 20.83333 m 20.83334,0 h 41.66666 m 20.83334,0 h 62.5 m 20.83333,0 h 20.83333 M 41.666667,239.08331 H 187.5 m 333.33333,0 h 62.5 m 20.83334,0 h 62.5 m 20.83333,0 h 125 m 20.83333,0 H 875 m 41.66667,0 H 937.5 M 41.666667,259.91665 H 166.66667 m 375,0 h 104.16666 m 20.83334,0 h 41.66666 m 20.83334,0 H 750 m 20.83333,0 h 20.83334 m 20.83333,0 h 20.83333 m 20.83334,0 H 875 m 20.83333,0 h 20.83334 m 20.83333,0 h 20.83333 M 41.666667,280.74998 H 145.83333 m 416.66667,0 h 41.66667 m 20.83333,0 h 104.16667 m 20.83333,0 h 20.83333 m 20.83334,0 h 41.66666 m 20.83334,0 h 41.66666 m 20.83334,0 H 937.5 M 41.666667,301.58331 H 145.83333 m 416.66667,0 H 625 m 20.83333,0 h 20.83334 m 20.83333,0 h 20.83333 m 20.83334,0 H 812.5 m 20.83333,0 h 20.83334 m 41.66666,0 h 20.83334 m 20.83333,0 h 20.83333 M 41.666667,322.41665 H 125 m 458.33333,0 h 145.83334 m 20.83333,0 h 20.83333 m 41.66667,0 h 20.83333 m 20.83334,0 h 41.66666 m 20.83334,0 H 937.5 M 41.666667,343.24998 H 125 m 458.33333,0 h 20.83334 m 20.83333,0 h 20.83333 m 20.83334,0 H 687.5 m 20.83333,0 H 750 m 20.83333,0 H 812.5 m 20.83333,0 h 20.83334 m 41.66666,0 h 20.83334 m 20.83333,0 h 20.83333 M 41.666667,364.08331 h 62.500003 m 500,0 h 62.5 m 20.83333,0 h 20.83333 m 20.83334,0 h 41.66666 m 20.83334,0 H 812.5 m 20.83333,0 H 875 m 20.83333,0 h 20.83334 M 41.666667,384.91665 h 62.500003 m 520.83333,0 h 20.83333 m 20.83334,0 h 62.5 m 41.66666,0 h 20.83334 m 20.83333,0 h 20.83333 m 20.83334,0 H 875 m 20.83333,0 h 20.83334 m 20.83333,0 h 20.83333 M 41.666667,405.74998 h 62.500003 m 500,0 H 625 m 20.83333,0 H 687.5 m 41.66667,0 h 41.66666 m 20.83334,0 H 812.5 m 20.83333,0 h 20.83334 m 20.83333,0 h 20.83333 m 20.83334,0 H 937.5 M 41.666667,426.58331 h 62.500003 m 520.83333,0 h 41.66667 m 20.83333,0 h 41.66667 m 20.83333,0 h 20.83333 m 20.83334,0 H 812.5 m 20.83333,0 h 20.83334 m 41.66666,0 h 20.83334 M 41.666667,447.41665 h 62.500003 m 500,0 H 625 m 20.83333,0 h 20.83334 m 20.83333,0 h 20.83333 m 20.83334,0 H 750 m 20.83333,0 h 20.83334 m 20.83333,0 h 20.83333 m 20.83334,0 H 875 m 41.66667,0 H 937.5 M 41.666667,468.24998 h 62.500003 m 500,0 h 41.66666 m 20.83334,0 H 687.5 m 20.83333,0 h 20.83334 m 20.83333,0 h 20.83333 m 20.83334,0 H 812.5 m 41.66667,0 H 875 m 20.83333,0 h 20.83334 m 20.83333,0 h 20.83333 M 41.666667,489.08331 h 62.500003 m 541.66666,0 h 20.83334 m 20.83333,0 h 41.66667 m 20.83333,0 h 20.83333 m 20.83334,0 H 812.5 m 20.83333,0 h 20.83334 m 20.83333,0 h 20.83333 M 41.666667,509.91665 H 125 m 458.33333,0 h 62.5 m 20.83334,0 H 687.5 m 41.66667,0 H 750 m 20.83333,0 h 20.83334 m 20.83333,0 h 20.83333 m 62.5,0 h 20.83334 m 20.83333,0 h 20.83333 M 41.666667,530.74998 H 125 m 500,0 h 41.66667 m 20.83333,0 h 41.66667 m 20.83333,0 h 20.83333 m 62.5,0 H 875 M 41.666667,551.58331 H 145.83333 m 416.66667,0 H 625 m 41.66667,0 H 687.5 m 41.66667,0 H 750 m 20.83333,0 h 20.83334 m 20.83333,0 h 20.83333 m 41.66667,0 h 20.83333 m 20.83334,0 H 937.5 M 41.666667,572.41665 H 145.83333 m 416.66667,0 h 20.83333 m 20.83334,0 H 625 m 20.83333,0 H 687.5 m 20.83333,0 h 20.83334 m 62.5,0 H 812.5 m 41.66667,0 H 875 M 41.666667,593.24998 H 166.66667 m 416.66666,0 h 62.5 m 41.66667,0 h 20.83333 m 20.83334,0 h 41.66666 m 41.66667,0 h 20.83333 m 62.5,0 h 20.83334 m 20.83333,0 h 20.83333 M 41.666667,614.08331 H 145.83333 m 20.83334,0 H 187.5 m 416.66667,0 h 62.5 m 41.66666,0 h 20.83334 m 41.66666,0 h 20.83334 m 41.66666,0 h 20.83334 m 20.83333,0 h 20.83333 M 41.666667,634.91665 H 229.16667 m 395.83333,0 h 20.83333 m 20.83334,0 h 41.66666 m 41.66667,0 h 20.83333 m 20.83334,0 H 812.5 m 104.16667,0 H 937.5 M 41.666667,655.74998 H 270.83333 m 375,0 h 20.83334 m 62.5,0 H 750 m 83.33333,0 h 20.83334 m 20.83333,0 h 20.83333 M 41.666667,676.58331 h 62.500003 m 20.83333,0 h 41.66667 m 20.83333,0 h 41.66667 m 20.83333,0 h 83.33333 m 20.83334,0 H 375 m 20.83333,0 h 20.83334 m 20.83333,0 h 20.83333 m 208.33334,0 H 687.5 m 20.83333,0 h 20.83334 m 20.83333,0 h 20.83333 m 20.83334,0 H 812.5 M 41.666667,697.41665 H 250 m 20.83333,0 h 20.83334 m 20.83333,0 h 41.66667 m 20.83333,0 h 62.5 m 20.83333,0 h 20.83334 m 208.33333,0 h 20.83333 m 104.16667,0 h 20.83333 m 20.83334,0 H 875 m 41.66667,0 H 937.5 M 41.666667,718.24998 H 166.66667 m 20.83333,0 h 20.83333 m 20.83334,0 h 104.16666 m 20.83334,0 h 41.66666 m 41.66667,0 h 20.83333 m 20.83334,0 H 500 m 229.16667,0 H 750 m 20.83333,0 h 20.83334 m 83.33333,0 h 20.83333 M 41.666667,739.08331 h 41.666666 m 20.833337,0 H 125 m 20.83333,0 h 125 m 20.83334,0 H 312.5 m 20.83333,0 H 375 m 20.83333,0 H 437.5 m 20.83333,0 h 20.83334 m 20.83333,0 h 20.83333 m 291.66667,0 h 20.83333 M 41.666667,759.91665 H 166.66667 m 20.83333,0 h 20.83333 m 20.83334,0 H 250 m 20.83333,0 h 20.83334 m 20.83333,0 h 41.66667 m 20.83333,0 h 20.83333 m 20.83334,0 h 41.66666 m 20.83334,0 H 500 m 20.83333,0 h 20.83334 m 208.33333,0 h 20.83333 m 20.83334,0 H 812.5 m 41.66667,0 H 875 M 41.666667,780.74998 H 62.5 m 20.833333,0 H 125 m 20.83333,0 h 83.33334 m 20.83333,0 h 62.5 m 20.83333,0 h 20.83334 m 20.83333,0 h 20.83333 m 41.66667,0 h 20.83333 m 20.83334,0 h 41.66666 m 20.83334,0 H 562.5 m 354.16667,0 H 937.5"
     id="path4"
     style="stroke-width:20.8333" />
  <path
     stroke="#cccc66"
     d="M 20.833333,155.74998 H 520.83333 M 20.833333,801.58331 h 20.833334"
     id="path5"
     style="stroke-width:20.8333" />
  <path
     stroke="#868686"
     d="m 270.83333,197.41665 h 145.83334 m -187.5,20.83333 h 41.66666 M 187.5,239.08331 h 41.66667 m -62.5,20.83334 H 187.5 m -41.66667,20.83333 h 20.83334 m -20.83334,20.83333 h 20.83334 M 125,322.41665 h 20.83333 M 125,343.24998 h 20.83333 m -41.66666,20.83333 H 125 m -20.83333,20.83334 H 125 m -20.83333,20.83333 H 125 m -20.83333,20.83333 H 125 m -20.83333,20.83334 H 125 m -20.83333,20.83333 H 125 m -20.83333,20.83333 H 125 m 0,20.83334 h 20.83333 M 125,530.74998 h 20.83333 m 0,20.83333 h 20.83334 m -20.83334,20.83334 h 20.83334 m 0,20.83333 H 187.5 m 333.33333,0 h 20.83334 M 187.5,614.08331 h 41.66667 m 270.83333,0 h 62.5 m -104.16667,20.83334 h 20.83334 m 41.66666,0 h 62.5 M 437.5,655.74998 h 20.83333 m 83.33334,0 h 62.5 m -145.83334,20.83333 h 20.83334 m 83.33333,0 h 20.83333 M 479.16667,697.41665 H 500 m 0,20.83333 h 20.83333"
     id="path6"
     style="stroke-width:20.8333" />
  <path
     stroke="#ffcc99"
     d="m 416.66667,197.41665 h 62.5 m 312.5,0 H 812.5 m 41.66667,0 H 875 m 20.83333,0 h 20.83334 m 20.83333,0 h 20.83333 m -500,20.83333 H 500 m 125,0 h 20.83333 m 41.66667,0 h 20.83333 m 20.83334,0 H 750 m 20.83333,0 h 20.83334 m 41.66666,0 h 20.83334 m 62.5,0 H 937.5 M 500,239.08331 h 20.83333 m 62.5,0 h 20.83334 m 62.5,0 H 687.5 m 125,0 h 20.83333 m 41.66667,0 h 41.66667 m 20.83333,0 h 20.83333 m -437.5,20.83334 h 20.83334 m 104.16666,0 h 20.83334 m 41.66666,0 h 20.83334 m 20.83333,0 h 20.83333 m 20.83334,0 H 812.5 m 20.83333,0 h 20.83334 m 20.83333,0 h 20.83333 m 20.83334,0 H 937.5 M 541.66667,280.74998 H 562.5 m 41.66667,0 H 625 m 104.16667,0 H 750 m 20.83333,0 h 20.83334 m 41.66666,0 h 20.83334 m 41.66666,0 h 20.83334 m 20.83333,0 h 20.83333 M 541.66667,301.58331 H 562.5 m 62.5,0 h 20.83333 m 20.83334,0 H 687.5 m 20.83333,0 h 20.83334 m 83.33333,0 h 20.83333 m 20.83334,0 h 41.66666 m 20.83334,0 H 937.5 m -375,20.83334 h 20.83333 m 145.83334,0 H 750 m 20.83333,0 H 812.5 m 20.83333,0 h 20.83334 m 41.66666,0 h 20.83334 m 20.83333,0 h 20.83333 M 562.5,343.24998 h 20.83333 m 20.83334,0 H 625 m 20.83333,0 h 20.83334 m 20.83333,0 h 20.83333 m 41.66667,0 h 20.83333 m 41.66667,0 h 20.83333 m 20.83334,0 h 41.66666 m 20.83334,0 H 937.5 m -354.16667,20.83333 h 20.83334 m 62.5,0 H 687.5 m 20.83333,0 h 20.83334 m 41.66666,0 h 20.83334 m 20.83333,0 h 20.83333 m 41.66667,0 h 20.83333 m 20.83334,0 h 41.66666 m -375,20.83334 H 625 m 20.83333,0 h 20.83334 m 62.5,0 h 41.66666 m 20.83334,0 H 812.5 m 20.83333,0 h 20.83334 m 20.83333,0 h 20.83333 m 20.83334,0 H 937.5 m -354.16667,20.83333 h 20.83334 m 20.83333,0 h 20.83333 m 41.66667,0 h 41.66667 m 41.66666,0 h 20.83334 m 20.83333,0 h 20.83333 m 20.83334,0 H 875 m 20.83333,0 h 20.83334 m 20.83333,0 h 20.83333 m -375,20.83333 H 625 m 41.66667,0 H 687.5 m 41.66667,0 H 750 m 20.83333,0 h 20.83334 m 20.83333,0 h 20.83333 m 20.83334,0 h 41.66666 m 20.83334,0 h 41.66666 m -375,20.83334 h 20.83334 m 20.83333,0 h 20.83333 m 20.83334,0 H 687.5 m 20.83333,0 h 20.83334 m 20.83333,0 h 20.83333 m 20.83334,0 H 812.5 m 20.83333,0 h 20.83334 m 20.83333,0 h 41.66667 m 20.83333,0 h 20.83333 m -375,20.83333 h 20.83334 m 41.66666,0 h 20.83334 m 20.83333,0 h 20.83333 m 20.83334,0 H 750 m 20.83333,0 h 20.83334 m 20.83333,0 h 41.66667 m 20.83333,0 h 20.83333 m 20.83334,0 H 937.5 m -354.16667,20.83333 h 62.5 m 20.83334,0 H 687.5 m 41.66667,0 H 750 m 20.83333,0 h 20.83334 m 20.83333,0 h 20.83333 m 20.83334,0 H 875 m 20.83333,0 h 62.5 M 562.5,509.91665 h 20.83333 m 62.5,0 h 20.83334 m 20.83333,0 h 41.66667 m 20.83333,0 h 20.83333 m 20.83334,0 H 812.5 m 20.83333,0 h 62.5 m 20.83334,0 H 937.5 m -375,20.83333 H 625 m 41.66667,0 H 687.5 m 41.66667,0 H 750 m 20.83333,0 h 62.5 m 41.66667,0 h 83.33333 M 541.66667,551.58331 H 562.5 m 62.5,0 h 41.66667 m 20.83333,0 h 41.66667 m 20.83333,0 h 20.83333 m 20.83334,0 H 812.5 m 20.83333,0 H 875 m 20.83333,0 h 20.83334 m 20.83333,0 h 20.83333 M 541.66667,572.41665 H 562.5 m 20.83333,0 h 20.83334 m 20.83333,0 h 20.83333 m 41.66667,0 h 20.83333 m 20.83334,0 h 62.5 m 20.83333,0 h 41.66667 m 20.83333,0 h 83.33333 M 562.5,593.24998 h 20.83333 m 62.5,0 H 687.5 m 20.83333,0 h 20.83334 m 41.66666,0 H 812.5 m 20.83333,0 h 62.5 m 20.83334,0 H 937.5 m -791.66667,20.83333 h 20.83334 m 416.66666,0 h 20.83334 m 62.5,0 h 41.66666 m 20.83334,0 h 41.66666 m 20.83334,0 h 41.66666 m 20.83334,0 H 875 m 20.83333,0 h 62.5 M 604.16667,634.91665 H 625 m 20.83333,0 h 20.83334 m 41.66666,0 H 750 m 20.83333,0 h 20.83334 m 20.83333,0 h 104.16667 m 20.83333,0 h 20.83333 M 416.66667,655.74998 H 437.5 m 187.5,0 h 20.83333 m 20.83334,0 h 62.5 m 20.83333,0 h 83.33333 m 20.83334,0 H 875 m 20.83333,0 h 62.5 M 104.16667,676.58331 H 125 m 41.66667,0 H 187.5 m 41.66667,0 H 250 m 83.33333,0 h 20.83334 m 20.83333,0 h 20.83333 m 20.83334,0 H 437.5 m 208.33333,0 h 20.83334 m 20.83333,0 h 20.83333 m 20.83334,0 H 750 m 20.83333,0 h 20.83334 m 20.83333,0 H 958.33333 M 250,697.41665 h 20.83333 m 20.83334,0 H 312.5 m 41.66667,0 H 375 m 62.5,0 h 20.83333 m 208.33334,0 H 687.5 m 20.83333,0 H 812.5 m 20.83333,0 h 20.83334 m 20.83333,0 h 41.66667 m 20.83333,0 h 20.83333 M 166.66667,718.24998 H 187.5 m 20.83333,0 h 20.83334 m 104.16666,0 h 20.83334 m 41.66666,0 H 437.5 m 20.83333,0 h 20.83334 m 208.33333,0 h 41.66667 m 20.83333,0 h 20.83333 m 20.83334,0 H 875 m 20.83333,0 h 62.5 M 83.333333,739.08331 h 20.833337 m 20.83333,0 h 20.83333 m 125,0 h 20.83334 m 20.83333,0 h 20.83333 m 41.66667,0 h 20.83333 m 41.66667,0 h 20.83333 m 20.83334,0 H 500 m 208.33333,0 H 812.5 m 20.83333,0 h 125 M 166.66667,759.91665 H 187.5 m 20.83333,0 h 20.83334 m 20.83333,0 h 20.83333 m 20.83334,0 H 312.5 m 41.66667,0 H 375 m 20.83333,0 h 20.83334 m 41.66666,0 h 20.83334 m 20.83333,0 h 20.83333 m 208.33334,0 H 750 m 20.83333,0 h 20.83334 m 20.83333,0 h 41.66667 m 20.83333,0 h 83.33333 M 62.5,780.74998 h 20.833333 m 41.666667,0 h 20.83333 m 83.33334,0 H 250 m 62.5,0 h 20.83333 m 20.83334,0 H 375 m 20.83333,0 H 437.5 m 20.83333,0 h 20.83334 m 41.66666,0 h 20.83334 m 208.33333,0 h 166.66667 m 20.83333,0 h 20.83333"
     id="path7"
     style="stroke-width:20.8333" />
  <path
     stroke="#c0c0c0"
     d="m 270.83333,218.24998 h 20.83334 m 20.83333,0 h 20.83333 m 20.83334,0 H 375 m 20.83333,0 h 20.83334 m 0,20.83333 H 437.5 m -250,20.83334 h 20.83333 m 20.83334,0 H 250 m 104.16667,0 H 375 m 20.83333,0 h 20.83334 m 20.83333,0 h 20.83333 M 166.66667,280.74998 H 187.5 m 145.83333,0 h 20.83334 m 20.83333,0 h 20.83333 m 20.83334,0 H 437.5 m 20.83333,0 h 20.83334 M 312.5,301.58331 h 20.83333 m 20.83334,0 H 375 m 20.83333,0 h 20.83334 m 20.83333,0 h 20.83333 m 20.83334,0 H 500 M 291.66667,322.41665 H 312.5 m 20.83333,0 h 20.83334 m 20.83333,0 h 20.83333 m 20.83334,0 H 437.5 m 20.83333,0 h 20.83334 m 20.83333,0 h 20.83333 m -250,20.83333 h 20.83334 m 20.83333,0 h 20.83333 m 20.83334,0 H 375 m 20.83333,0 h 20.83334 m 20.83333,0 h 20.83333 m 20.83334,0 H 500 m -375,20.83333 h 20.83333 m 104.16667,0 h 20.83333 m 20.83334,0 H 312.5 m 20.83333,0 h 20.83334 m 20.83333,0 h 20.83333 m 20.83334,0 H 437.5 m 20.83333,0 h 20.83334 m 20.83333,0 h 20.83333 M 125,384.91665 h 20.83333 m 83.33334,0 H 250 m 20.83333,0 h 20.83334 m 20.83333,0 h 20.83333 m 20.83334,0 H 375 m 20.83333,0 h 20.83334 m 20.83333,0 h 20.83333 m 20.83334,0 H 500 m 20.83333,0 h 20.83334 M 125,405.74998 h 20.83333 m 104.16667,0 h 20.83333 m 20.83334,0 H 312.5 m 20.83333,0 h 20.83334 m 20.83333,0 h 20.83333 m 20.83334,0 H 437.5 m 20.83333,0 h 20.83334 m 20.83333,0 h 20.83333 M 125,426.58331 h 20.83333 m 83.33334,0 H 250 m 20.83333,0 h 20.83334 m 20.83333,0 h 20.83333 m 20.83334,0 H 375 m 20.83333,0 h 20.83334 m 20.83333,0 h 20.83333 m 20.83334,0 H 500 m 20.83333,0 h 20.83334 M 125,447.41665 h 20.83333 m 104.16667,0 h 20.83333 m 20.83334,0 H 312.5 m 20.83333,0 h 20.83334 m 20.83333,0 h 20.83333 m 20.83334,0 H 437.5 m 20.83333,0 h 20.83334 m 20.83333,0 h 20.83333 M 125,468.24998 h 20.83333 m 83.33334,0 H 250 m 20.83333,0 h 20.83334 m 20.83333,0 h 20.83333 m 20.83334,0 H 375 m 20.83333,0 h 20.83334 m 20.83333,0 h 20.83333 m 20.83334,0 H 500 m 20.83333,0 h 20.83334 M 125,489.08331 h 20.83333 m 104.16667,0 h 20.83333 m 20.83334,0 H 312.5 m 20.83333,0 h 20.83334 m 20.83333,0 h 20.83333 m 20.83334,0 H 437.5 m 20.83333,0 h 20.83334 m 20.83333,0 h 20.83333 m -375,20.83334 h 20.83334 m 62.5,0 H 250 m 20.83333,0 h 20.83334 m 20.83333,0 h 20.83333 m 20.83334,0 H 375 m 20.83333,0 h 20.83334 m 20.83333,0 h 20.83333 m 20.83334,0 H 500 M 145.83333,530.74998 H 187.5 m 62.5,0 h 20.83333 m 20.83334,0 H 312.5 m 20.83333,0 h 20.83334 m 20.83333,0 h 20.83333 m 20.83334,0 H 437.5 m 20.83333,0 h 20.83334 m 20.83333,0 h 20.83333 m -354.16666,20.83333 h 41.66666 m 20.83334,0 H 250 m 20.83333,0 h 20.83334 m 20.83333,0 h 20.83333 m 20.83334,0 H 375 m 20.83333,0 h 20.83334 m 20.83333,0 h 20.83333 m 20.83334,0 H 500 m -291.66667,20.83334 h 20.83334 m 20.83333,0 h 20.83333 m 20.83334,0 H 312.5 m 20.83333,0 h 20.83334 m 20.83333,0 h 20.83333 m 20.83334,0 H 437.5 m 20.83333,0 h 20.83334 m -250,20.83333 H 250 m 20.83333,0 h 20.83334 m 20.83333,0 h 20.83333 m 20.83334,0 H 375 m 20.83333,0 h 20.83334 m 20.83333,0 h 20.83333 M 291.66667,614.08331 H 312.5 m 20.83333,0 h 20.83334 m 20.83333,0 h 20.83333 M 500,634.91665 h 20.83333 m -62.5,20.83333 h 20.83334 m 41.66666,0 h 20.83334 m -62.5,20.83333 H 500 m 41.66667,0 H 562.5 M 500,697.41665 h 20.83333 m 0,20.83333 h 20.83334"
     id="path8"
     style="stroke-width:20.8333" />
  <path
     stroke="#00ffff"
     d="M 291.66667,218.24998 H 312.5 m 20.83333,0 h 20.83334 m 20.83333,0 h 20.83333 M 229.16667,239.08331 H 250 m 20.83333,0 h 20.83334 m 20.83333,0 h 20.83333 m 20.83334,0 H 375 m 20.83333,0 h 20.83334 m 20.83333,0 h 20.83333 m -250,20.83334 h 20.83334 m 20.83333,0 h 20.83333 m 20.83334,0 H 312.5 m 20.83333,0 h 20.83334 m 20.83333,0 h 20.83333 m 20.83334,0 H 437.5 m 20.83333,0 h 20.83334 M 187.5,280.74998 h 20.83333 m 20.83334,0 H 250 m 20.83333,0 h 20.83334 m 20.83333,0 h 20.83333 m 20.83334,0 H 375 m 20.83333,0 h 20.83334 m 20.83333,0 h 20.83333 m 20.83334,0 H 500 M 166.66667,301.58331 H 187.5 m 20.83333,0 h 20.83334 m 62.5,0 H 312.5 m 20.83333,0 h 20.83334 m 20.83333,0 h 20.83333 m 20.83334,0 H 437.5 m 20.83333,0 h 20.83334 m -333.33334,20.83334 h 20.83334 m 20.83333,0 h 20.83333 m 62.5,0 h 20.83334 m 20.83333,0 h 20.83333 m 20.83334,0 H 375 m 20.83333,0 h 20.83334 m 20.83333,0 h 20.83333 m 20.83334,0 H 500 M 166.66667,343.24998 H 187.5 m 62.5,0 h 20.83333 m 20.83334,0 H 312.5 m 20.83333,0 h 20.83334 m 20.83333,0 h 20.83333 m 20.83334,0 H 437.5 m 20.83333,0 h 20.83334 m 20.83333,0 h 20.83333 m -375,20.83333 h 20.83334 m 104.16666,0 h 20.83334 m 20.83333,0 h 20.83333 m 20.83334,0 H 375 m 20.83333,0 h 20.83334 m 20.83333,0 h 20.83333 m 20.83334,0 H 500 m 20.83333,0 h 20.83334 m -375,20.83334 H 187.5 m 62.5,0 h 20.83333 m 20.83334,0 H 312.5 m 20.83333,0 h 20.83334 m 20.83333,0 h 20.83333 m 20.83334,0 H 437.5 m 20.83333,0 h 20.83334 m 20.83333,0 h 20.83333 m -375,20.83333 h 20.83334 m 62.5,0 H 250 m 20.83333,0 h 20.83334 m 20.83333,0 h 20.83333 m 20.83334,0 H 375 m 20.83333,0 h 20.83334 m 20.83333,0 h 20.83333 m 20.83334,0 H 500 m 20.83333,0 h 20.83334 m -375,20.83333 H 187.5 m 20.83333,0 h 20.83334 m 20.83333,0 h 20.83333 m 20.83334,0 H 312.5 m 20.83333,0 h 20.83334 m 20.83333,0 h 20.83333 m 20.83334,0 H 437.5 m 20.83333,0 h 20.83334 m 20.83333,0 h 20.83333 m -375,20.83334 h 20.83334 m 20.83333,0 h 20.83333 m 20.83334,0 H 250 m 20.83333,0 h 20.83334 m 20.83333,0 h 20.83333 m 20.83334,0 H 375 m 20.83333,0 h 20.83334 m 20.83333,0 h 20.83333 m 20.83334,0 H 500 m 20.83333,0 h 20.83334 m -375,20.83333 H 187.5 m 20.83333,0 h 20.83334 m 20.83333,0 h 20.83333 m 20.83334,0 H 312.5 m 20.83333,0 h 20.83334 m 20.83333,0 h 20.83333 m 20.83334,0 H 437.5 m 20.83333,0 h 20.83334 m 20.83333,0 h 20.83333 m -375,20.83333 h 20.83334 m 20.83333,0 h 20.83333 m 20.83334,0 H 250 m 20.83333,0 h 20.83334 m 20.83333,0 h 20.83333 m 20.83334,0 H 375 m 20.83333,0 h 20.83334 m 20.83333,0 h 20.83333 m 20.83334,0 H 500 m 20.83333,0 h 20.83334 m -375,20.83334 H 187.5 m 20.83333,0 h 20.83334 m 20.83333,0 h 20.83333 m 20.83334,0 H 312.5 m 20.83333,0 h 20.83334 m 20.83333,0 h 20.83333 m 20.83334,0 H 437.5 m 20.83333,0 h 20.83334 m 20.83333,0 h 20.83333 M 187.5,530.74998 h 20.83333 m 20.83334,0 H 250 m 20.83333,0 h 20.83334 m 20.83333,0 h 20.83333 m 20.83334,0 H 375 m 20.83333,0 h 20.83334 m 20.83333,0 h 20.83333 m 20.83334,0 H 500 m -291.66667,20.83333 h 20.83334 m 20.83333,0 h 20.83333 m 20.83334,0 H 312.5 m 20.83333,0 h 20.83334 m 20.83333,0 h 20.83333 m 20.83334,0 H 437.5 m 20.83333,0 h 20.83334 M 187.5,572.41665 h 20.83333 m 20.83334,0 H 250 m 20.83333,0 h 20.83334 m 20.83333,0 h 20.83333 m 20.83334,0 H 375 m 20.83333,0 h 20.83334 m 20.83333,0 h 20.83333 M 250,593.24998 h 20.83333 m 20.83334,0 H 312.5 m 20.83333,0 h 20.83334 m 20.83333,0 h 20.83333 m 20.83334,0 H 437.5 m -166.66667,20.83333 h 20.83334 m 20.83333,0 h 20.83333 m 20.83334,0 H 375 m 20.83333,0 h 20.83334 m 125,104.16667 h 41.66666 M 562.5,739.08331 h 41.66667 m -20.83334,20.83334 H 625 m -20.83333,20.83333 h 41.66666 M 625,801.58331 h 41.66667 m -20.83334,20.83334 H 687.5 m -20.83333,20.83333 h 41.66666 M 687.5,864.08331 h 41.66667 m -20.83334,20.83334 H 750 m -20.83333,20.83333 h 41.66666 M 750,926.58331 h 41.66667"
     id="path9"
     style="stroke-width:20.8333" />
  <path
     stroke="#008080"
     d="M 479.16667,259.91665 H 500 m 0,20.83333 h 20.83333 M 500,301.58331 h 20.83333 m 0,20.83334 h 20.83334 m -20.83334,20.83333 h 20.83334 m 0,20.83333 H 562.5 m -20.83333,20.83334 H 562.5 m -20.83333,20.83333 H 562.5 m -20.83333,20.83333 H 562.5 m -20.83333,20.83334 H 562.5 m -20.83333,20.83333 H 562.5 m -20.83333,20.83333 H 562.5 m -41.66667,20.83334 h 20.83334 m -20.83334,20.83333 h 20.83334 M 500,551.58331 h 20.83333 M 166.66667,572.41665 H 187.5 m 291.66667,0 h 41.66666 M 187.5,593.24998 h 41.66667 m 229.16666,0 H 500 m -270.83333,20.83333 h 41.66666 m 145.83334,0 h 41.66666 m -187.5,20.83334 h 145.83334"
     id="path10"
     style="stroke-width:20.8333" />
  <path
     stroke="#0000ff"
     d="m 583.33333,676.58331 h 20.83334 M 562.5,697.41665 H 625 m -41.66667,20.83333 h 62.5 M 541.66667,739.08331 H 562.5 m 41.66667,0 h 62.5 M 562.5,759.91665 h 20.83333 m 41.66667,0 h 62.5 m -104.16667,20.83333 h 20.83334 m 41.66666,0 h 62.5 M 604.16667,801.58331 H 625 m 41.66667,0 h 62.5 M 625,822.41665 h 20.83333 m 41.66667,0 H 750 m -104.16667,20.83333 h 20.83334 m 41.66666,0 h 62.5 M 666.66667,864.08331 H 687.5 m 41.66667,0 h 62.5 M 687.5,884.91665 h 20.83333 m 41.66667,0 h 62.5 m -104.16667,20.83333 h 20.83334 m 41.66666,0 H 812.5 m -83.33333,20.83333 H 750"
     id="path11"
     style="stroke-width:20.8333" />
  <path
     stroke="#000080"
     d="M 604.16667,676.58331 H 625 m 0,20.83334 h 20.83333 m 0,20.83333 h 20.83334 m -145.83334,20.83333 h 20.83334 m 125,0 H 687.5 M 541.66667,759.91665 H 562.5 m 125,0 h 20.83333 M 562.5,780.74998 h 20.83333 m 125,0 h 20.83334 m -145.83334,20.83333 h 20.83334 m 125,0 H 750 M 604.16667,822.41665 H 625 m 125,0 h 20.83333 M 625,843.24998 h 20.83333 m 125,0 h 20.83334 m -145.83334,20.83333 h 20.83334 m 125,0 H 812.5 M 666.66667,884.91665 H 687.5 m 125,0 h 20.83333 M 687.5,905.74998 h 20.83333 m 104.16667,0 h 20.83333 m -125,20.83333 h 20.83334 m 62.5,0 h 41.66666 m -104.16666,20.83334 h 104.16666"
     id="path12"
     style="stroke-width:20.8333" />
  <path
     stroke="#808000"
     d="m 500,801.58331 h 83.33333"
     id="path13"
     style="stroke-width:20.8333" />
</svg>
